<?xml version="1.0" encoding="utf-8"?>
<!-- Generator: Adobe Illustrator 21.1.0, SVG Export Plug-In . SVG Version: 6.00 Build 0)  -->
<svg version="1.1" id="Layer_1" xmlns="http://www.w3.org/2000/svg" xmlns:xlink="http://www.w3.org/1999/xlink" x="0px" y="0px"
	 viewBox="0 0 100 82" style="enable-background:new 0 0 100 82;" xml:space="preserve">
<style type="text/css">
	.st0{fill:#FFFFFF;}
</style>
<path class="st0" d="M97.1,43.5c-6.5-30.8-22.7-39.4-30.5-39c-7.5,0.4-8.3,16.9-9,25.1C50.5,19,54.4,0,54.4,0h-8.3
	c0,0,4.3,20.9-3.6,30.6c-0.8-8-1.4-25.6-9.1-26c-7.7-0.4-24.1,8.1-30.5,39s-1.3,41.2,8.2,37.8c9.6-3.4,30.3-8,31.4-14.7
	c0.8-5,1.1-15.8,0.7-26c1.9-1,7.1-4.2,7.1-10.9c0,6,4.3,9.3,6.5,10.6c-0.4,10.3-0.2,21.1,0.6,26.3c1.1,6.8,21.8,11.3,31.4,14.7
	S103.6,74.4,97.1,43.5z"/>
</svg>
